<?xml version="1.0" encoding="UTF-8" standalone="no"?>
<!-- Created with Inkscape (http://www.inkscape.org/) -->

<svg
   width="613.03973"
   height="417.57181"
   viewBox="0 0 613.03973 417.57181"
   version="1.1"
   id="svg1"
   xmlns="http://www.w3.org/2000/svg"
   xmlns:svg="http://www.w3.org/2000/svg">
  <defs
     id="defs1">
    <rect
       x="331.63635"
       y="257.45456"
       width="464.2327"
       height="189.88725"
       id="rect1" />
  </defs>
  <g
     id="layer1"
     transform="translate(-835.32319,-333.57028)">
    <g
       id="g4"
       transform="translate(-97.09082,-136.36365)">
      <circle
         style="fill:none;fill-opacity:0.92549;stroke:#dab455;stroke-width:7.04126;stroke-linecap:round;stroke-linejoin:round;stroke-opacity:1;paint-order:stroke fill markers"
         id="path1"
         cx="1205.9999"
         cy="676.36365"
         r="202.90909" />
      <path
         style="fill:none;fill-opacity:0.92549;stroke:#dab455;stroke-width:7.04126;stroke-linecap:round;stroke-linejoin:round;stroke-opacity:1;paint-order:stroke fill markers"
         id="path2"
         d="m 401.45455,466.90909 -69.19345,-35.44027 -68.42166,36.90828 12.32374,-76.75852 -56.24531,-53.66758 76.80994,-11.99911 33.66014,-70.07667 35.14741,69.34266 77.04843,10.35782 -55.08765,54.85523 z"
         transform="matrix(0.91993128,0,0,0.49998081,928.81651,357.44903)" />
      <circle
         style="fill:none;fill-opacity:0.92549;stroke:#dab455;stroke-width:7.04126;stroke-linecap:round;stroke-linejoin:round;stroke-opacity:1;paint-order:stroke fill markers"
         id="circle4"
         cx="1259.9999"
         cy="676.36365"
         r="202.90909" />
      <text
         xml:space="preserve"
         id="text1"
         style="font-size:124.846px;font-family:'Christmas Wish';-inkscape-font-specification:'Christmas Wish, Normal';text-align:start;writing-mode:lr-tb;direction:ltr;white-space:pre;shape-inside:url(#rect1);display:inline;fill:#ffffff;fill-opacity:0.92549;stroke:#dab455;stroke-width:7.04126;stroke-linecap:round;stroke-linejoin:round;stroke-opacity:1;paint-order:stroke fill markers"
         transform="matrix(1.475199,0,0,1.475199,443.09392,179.8468)"><tspan
           x="331.63672"
           y="372.93763"
           id="tspan3"><tspan
             style="font-family:Baskerville;-inkscape-font-specification:'Baskerville, Normal';stroke:none"
             id="tspan2">ASTRA</tspan></tspan></text>
      <g
         id="g9"
         transform="matrix(0.8715301,0,0,0.8715301,95.586645,103.98987)">
        <ellipse
           style="fill:none;fill-opacity:0.92549;stroke:#dab455;stroke-width:6.298;stroke-linecap:round;stroke-linejoin:round;stroke-dasharray:none;stroke-opacity:1;paint-order:stroke fill markers"
           id="circle5"
           cx="1305.2126"
           cy="810.24902"
           rx="78.343483"
           ry="71.517769" />
        <path
           style="fill:none;fill-opacity:0.92549;stroke:#dab455;stroke-width:6.298;stroke-linecap:round;stroke-linejoin:round;stroke-dasharray:none;stroke-opacity:1;paint-order:stroke fill markers"
           d="m 1226.8692,810.24902 v 0 l 11.5853,-3.79447 8.4546,-6 10.9091,-1.90909 1.9091,4.90909 10.3636,-11.45455 7.0909,-1.09091 3,-13.90909 -6.2727,-10.09091 1.0909,-9.81818 10.0909,-6.54545 0.2589,-9.47744 -16.7291,5.94354 -19.2232,13.05123 -7.3708,7.90491 -8.5725,13.58113 -5.7572,18.33076 z"
           id="path8" />
        <path
           style="fill:none;fill-opacity:0.92549;stroke:#dab455;stroke-width:6.298;stroke-linecap:round;stroke-linejoin:round;stroke-dasharray:none;stroke-opacity:1;paint-order:stroke fill markers"
           d="m 1335.0111,876.39151 -12.8293,-10.48242 -3,-9 1.9091,-10.36363 v -15.81819 l 4.3636,-0.81818 8.4546,-21.54545 7.0909,0.27273 8.1818,-33.81819 4.6364,6.81819 13.6363,2.45454 14.8668,13.5102 0.8672,19.56796 -3.7038,15.83534 -9.5298,17.51615 -11.2623,11.99079 -13.5297,9.25808 z"
           id="path9" />
      </g>
      <path
         id="circle27"
         style="fill:none;fill-opacity:0.92549;stroke:#dab455;stroke-width:8.46594;stroke-linecap:round;stroke-linejoin:round;paint-order:stroke fill markers"
         d="m 963.03891,757.82161 c 44.00559,73.63272 148.72609,125.45113 270.96099,125.45113 122.2349,0 226.9553,-51.81839 270.9609,-125.45113" />
      <path
         style="fill:none;fill-opacity:0.92549;stroke:#dab455;stroke-width:6.298;stroke-linecap:round;stroke-linejoin:round;stroke-dasharray:none;stroke-opacity:1;paint-order:stroke fill markers"
         d="m 1232.7507,485.38173 1.7232,87.79343"
         id="path30" />
      <path
         style="fill:none;fill-opacity:0.92549;stroke:#dab455;stroke-width:6.298;stroke-linecap:round;stroke-linejoin:round;stroke-dasharray:none;stroke-opacity:1;paint-order:stroke fill markers"
         d="m 1131.1258,526.41805 102.7049,13.98799 102.1325,-15.1756"
         id="path31" />
      <path
         style="fill:none;fill-opacity:0.92549;stroke:#dab455;stroke-width:6.298;stroke-linecap:round;stroke-linejoin:round;stroke-dasharray:none;stroke-opacity:1;paint-order:stroke fill markers"
         d="m 1171.5306,591.62859 62.3001,-51.22255 64.2964,50.48857"
         id="path32" />
      <path
         style="fill:none;fill-opacity:0.92549;stroke:#dab455;stroke-width:6.298;stroke-linecap:round;stroke-linejoin:round;stroke-dasharray:none;stroke-opacity:1;paint-order:stroke fill markers"
         d="m 1201.7857,520.41872 32.045,19.98732 31.2532,-20.35431"
         id="path33" />
      <path
         style="fill:none;fill-opacity:0.92549;stroke:#dab455;stroke-width:6.298;stroke-linecap:round;stroke-linejoin:round;stroke-dasharray:none;stroke-opacity:1;paint-order:stroke fill markers"
         d="m 1285.2863,552.657 -51.4556,-12.25096 -50.963,12.84477"
         id="path34" />
    </g>
  </g>
</svg>
